<?xml version="1.0" encoding="utf-8"?>
<!-- Generator: Adobe Illustrator 21.0.0, SVG Export Plug-In . SVG Version: 6.00 Build 0)  -->
<svg version="1.1" id="Capa_1" xmlns="http://www.w3.org/2000/svg" xmlns:xlink="http://www.w3.org/1999/xlink" x="0px" y="0px"
	 viewBox="0 0 1893.8 201.6" style="enable-background:new 0 0 1893.8 201.6;" xml:space="preserve">
<style type="text/css">
	.st0{fill:#E05C27;}
</style>
<g>
	<g>
		<path class="st0" d="M-13.3,25.5c0,0,32.2,8,65.2,6s30.8-1.9,36-1.2c5.2,0.7,13.3,0.9,20.2-0.5c6.9-1.3,27.4-2.7,32-2.5
			c4.6,0.1,5.7-1.1,9.5-1.1c3.8,0,10-0.1,15.1-0.9c5.1-0.8,9-1,14.6-0.9c5.6,0.1,9.1,1.7,14.4,1.2c5.3-0.5,12.5,0.1,17.5,0.1
			c5,0.1,36.4,2.3,42.4,1.8c6.1-0.5,16.2,0.5,24.1,0.7c7.9,0.2,19,0.5,25.3,0.7s12.6,0.7,18.2-0.4c5.6-1.1,13.4-1.8,21.3-1.8
			c7.9,0,44.9,1.3,52.3,0.8c7.4-0.5,13.5-0.4,21.4-0.1c7.9,0.2,23.5-0.8,28.9-0.8c5.4,0.1,11.1,1.5,14.9,1.7
			c3.8,0.2,24.6,0.9,28.7,0.7s13.4-0.6,16.3-1.4c3-0.9,6.9,0.3,11.9-0.8c5-1.1,11-1.8,15.6-1.6c4.6,0.2,6.1-1.3,11-2
			c4.9-0.7,5,0.1,8.9-0.5c3.9-0.6,4.3-0.5,6.7-0.8c2.4-0.3,4.6-0.5,4.6-0.5L563.2,35c0,0-10.4-1.1-17,0.3s-9.2,1.1-14.5,2.3
			s-4.7,1.5-9.8,1.2c-5.1-0.4-2.7-1-6.9,0c-4.2,0.9-4.9,0.8-8.2,1.2c-3.3,0.4-7.2,0.6-9.6,1.4c-2.4,0.8-5,0.3-7.8,0.7
			c-2.8,0.4-18.4,0.7-22.6-0.6c-4.3-1.3-11.8,0.3-17.9-0.4c-6.1-0.7-15.5-1.5-19.4-0.5c-3.9,1-20-1.9-24.1-1.1
			c-4,0.8-17.3,2.2-20.3,2.1c-3-0.1-4.8-0.3-9.4-0.4c-4.7,0-17.4-1-21.8,0.1c-4.4,1.1-4.2-0.2-12.4-0.8s-12-1-18.2-0.6
			c-6.3,0.4-17.3,1.2-21.7,1.3c-4.4,0.1-5.5,0.9-10.2,0.7c-4.7-0.2-19.2-1.5-24.9-1.2c-5.8,0.3-13.9,1.6-21.8-0.3
			s-30.8-0.6-37.6-0.7c-6.8-0.1-34.6-0.7-39.8-0.7c-5.2,0.1-44.9,2.3-49.7,2.6c-4.8,0.3-28.8,1-34.1,1.1c-5.3,0.1-6.2,0.2-9.6,0.8
			c-3.4,0.6-8.6,1.2-15.3,1.3s-14.3,2.7-19.4,2.7c-5.1,0-15.9-0.9-19.2-1C16.6,46.4-8,44.5-10.4,44s-2.5-0.1-2.5-1.1
			C-12.9,41.8-13.3,25.5-13.3,25.5z"/>
		<path class="st0" d="M563.6,21.4c5.6,0.1,10.7,2.1,16,1.6c5.3-0.5,12.5,0.1,17.5,0.1c5,0.1,36.4,2.3,42.4,1.8
			c6.1-0.5,16.2,0.5,24.1,0.7c7.9,0.2,19,0.5,25.3,0.7c6.3,0.2,12.6,0.7,18.2-0.4c5.6-1.1,13.4-1.8,21.3-1.8
			c7.9,0,44.9,1.3,52.3,0.8c7.4-0.5,13.5-0.4,21.4-0.1c7.9,0.2,23.5-0.8,28.9-0.8c5.4,0.1,11.1,1.5,14.9,1.7
			c3.8,0.2,24.6,1.8,28.7,1.7c4.1-0.2,13.4-0.6,16.3-1.4c3-0.9,6.9,0.3,11.9-0.8c5-1.1,11-1.8,15.6-1.6s6.1,0.7,11,0
			c4.9-0.7,5,0.1,8.9-0.5c3.9-0.6,4.3-0.5,6.7-0.8c2.4-0.3,4.6-0.5,4.6-0.5L949,35.4c0,0-10.4-1.1-17,0.3c-6.6,1.4-9.2-0.9-14.5,0.3
			s-4.7,1.5-9.8,1.2c-5.1-0.4-2.7-1-6.9,0c-4.2,0.9-4.9,0.8-8.2,1.2c-3.3,0.4-7.2,0.6-9.6,1.4s-5,0.3-7.8,0.7
			c-2.8,0.4-18.4-0.3-22.6-1.6c-4.3-1.3-11.8,0.3-17.9-0.4c-6.1-0.7-15.5-1.5-19.4-0.5c-3.9,1-20-1.9-24.1-1.1
			c-4,0.8-17.3,2.2-20.3,2.1c-3-0.1-4.8-0.3-9.4-0.4s-17.4-1-21.8,0.1c-4.4,1.1-4.2-0.2-12.4-0.8c-8.2-0.6-12-1-18.2-0.6
			c-6.3,0.4-17.3,1.2-21.7,1.3c-4.4,0.1-5.5,0.9-10.2,0.7c-4.7-0.2-19.2-1.5-24.9-1.2c-5.8,0.3-13.9,1.6-21.8-0.3
			s-30.8-0.6-37.6-0.7c-6.8-0.1-34.6-2.4-39.8-2.4"/>
		<path class="st0" d="M1345.3,33.5c-5.2,0-32.9,2.4-39.8,2.5c-6.8,0.1-29.7-1.1-37.6,0.8c-7.9,1.9-16.1,0.6-21.8,0.3
			c-5.8-0.3-20.3,1-24.9,1.2c-4.7,0.3-5.8-0.6-10.2-0.6c-4.4,0-15.4-0.8-21.7-1.2c-6.3-0.4-10-0.1-18.2,0.6
			c-8.2,0.7-7.9,1.9-12.4,0.8c-4.4-1.1-17.2-0.1-21.8,0s-6.4,0.3-9.4,0.4c-3,0.1-16.3-1.3-20.4-2s-20.1,2.1-24.1,1.2
			c-3.9-0.9-13.3-0.1-19.4,0.6c-6.1,0.7-13.7-0.9-17.9,0.4c-4.2,1.3-19.8,2-22.6,1.6c-2.8-0.4-5.5,0.1-7.8-0.7
			c-2.4-0.8-6.3-1-9.6-1.3s-4-0.3-8.2-1.2c-4.2-0.9-1.9-0.3-6.9,0c-5.1,0.4-4.5,0.1-9.8-1.1c-5.3-1.2-7.9,1.1-14.5-0.3
			c0,0-14.7,0.2-17.6-0.3c-2.9-0.5-1.4-12.4-1.4-12.4l2.2-1.2c0,0,2-0.3,4.3,0c2.4,0.3,2.3,0.7,6.2,1.3s4-0.2,8.9,0.5
			c4.9,0.7,6.4,0.2,11,0c4.6-0.3,10.5,0.4,15.6,1.5c5,1.1,9-0.1,11.9,0.8s12.2,1.2,16.3,1.4c4.1,0.2,24.9-1.5,28.7-1.8
			c3.8-0.2,9.5-1.7,14.9-1.8c5.4-0.1,21,1,28.9,0.7c7.9-0.3,13.9-0.4,21.4,0.1c7.4,0.4,44.4-0.9,52.3-1c7.9-0.1,15.7,0.6,21.3,1.7
			s11.8,0.6,18.2,0.4c6.3-0.2,17.4-0.5,25.3-0.8s18-1.3,24.1-0.8s37.5-1.8,42.4-1.9c5-0.1,12.2-0.7,17.5-0.2
			c5.3,0.5,10.4-1.5,16-1.6"/>
		<path class="st0" d="M1332.3,34c-2.4,0.8-2-0.1-2-1.2l0.4-10.2c0,0,0.9-1.9,3.8-2.2c2.8-0.4,20.1,4.2,25.2,4
			c5-0.2,35.6,1.1,35.6,1.1c33-2.1,30.8-1.9,36-1.2c5.2,0.7,13.3,0.9,20.2-0.5c6.9-1.3,27.4-2.7,32-2.5c4.6,0.1,5.7-1.1,9.5-1.1
			c3.8,0,10-0.1,15.1-0.9c5.1-0.8,9-1,14.6-0.9s9.1,1.7,14.4,1.2c5.3-0.5,12.5,0.1,17.5,0.1c5,0.1,36.4,2.3,42.4,1.8
			c6.1-0.5,16.2,0.5,24.1,0.7s19,0.5,25.3,0.7c6.3,0.2,12.6,0.7,18.2-0.4s13.4-1.8,21.3-1.8c7.9,0,44.9,1.3,52.3,0.8
			c7.4-0.5,13.5-0.4,21.4-0.1c7.9,0.2,23.5-0.8,28.9-0.8c5.4,0.1,11.1,1.5,14.9,1.7c3.8,0.2,24.6,0.9,28.7,0.7
			c4.1-0.2,13.4-0.6,16.3-1.4c3-0.9,6.9,0.3,11.9-0.8c5-1.1,11-1.8,15.6-1.6s6.1-1.3,11-2s5,0.1,8.9-0.5s4.3-0.5,6.7-0.8
			c2.4-0.3,4.6-0.5,4.6-0.5l-0.4,13.6c0,0-10.4-1.1-17,0.3s-9.2,1.1-14.5,2.3c-5.3,1.2-4.7,1.5-9.8,1.2c-5.1-0.4-2.7-1-6.9,0
			c-4.2,0.9-4.9,0.8-8.2,1.2s-7.2,0.6-9.6,1.4c-2.4,0.8-5,0.3-7.8,0.7c-2.8,0.4-18.4,0.7-22.6-0.6c-4.3-1.3-11.8,0.3-17.9-0.4
			c-6.1-0.7-15.5-1.5-19.4-0.5c-3.9,1-20-1.9-24.1-1.1c-4,0.8-17.3,2.2-20.3,2.1c-3-0.1-4.8-0.3-9.4-0.4c-4.7,0-17.4-1-21.8,0.1
			s-4.2-0.2-12.4-0.8c-8.2-0.6-12-1-18.2-0.6c-6.3,0.4-17.3,1.2-21.7,1.3s-5.5,0.9-10.2,0.7c-4.7-0.2-19.2-1.5-24.9-1.2
			s-13.9,1.6-21.8-0.3c-7.9-1.9-30.8-0.6-37.6-0.7c-6.8-0.1-34.6-0.7-39.8-0.7c-5.2,0.1-44.9,2.3-49.7,2.6c-4.8,0.3-28.8,1-34.1,1.1
			c-5.3,0.1-6.2,0.2-9.6,0.8s-8.6,1.2-15.3,1.3c-6.6,0.1-18,0.6-23.1,0.7L1332.3,34z"/>
	</g>
	<g>
		<path class="st0" d="M-13.1,164.2c0,0,32.2,8,65.2,6c33-2.1,30.8-1.9,36-1.2c5.2,0.7,13.3,0.9,20.2-0.5c6.9-1.3,27.4-2.7,32-2.5
			s5.7-1.1,9.5-1.1c3.8,0,10-0.1,15.1-0.9c5.1-0.8,9-1,14.6-0.9s9.1,1.7,14.4,1.2c5.3-0.5,12.5,0.1,17.5,0.1
			c5,0.1,36.4,2.3,42.4,1.8c6.1-0.5,16.2,0.5,24.1,0.7c7.9,0.2,19,0.5,25.3,0.7c6.3,0.2,12.6,0.7,18.2-0.4
			c5.6-1.1,13.4-1.8,21.3-1.8s44.9,1.3,52.3,0.8c7.4-0.5,13.5-0.4,21.4-0.1c7.9,0.2,23.5-0.8,28.9-0.8c5.4,0.1,11.1,1.5,14.9,1.7
			c3.8,0.2,24.6,0.9,28.7,0.7c4.1-0.2,13.4-0.6,16.3-1.4c3-0.9,6.9,0.3,11.9-0.8c5-1.1,11-1.8,15.6-1.6s6.1-1.3,11-2
			c4.9-0.7,5,0.1,8.9-0.5c3.9-0.6,4.3-0.5,6.7-0.8s4.6-0.5,4.6-0.5l-0.4,13.6c0,0-10.4-1.1-17,0.3c-6.6,1.4-9.2,1.1-14.5,2.3
			s-4.7,1.5-9.8,1.2c-5.1-0.4-2.7-1-6.9,0c-4.2,0.9-4.9,0.8-8.2,1.2c-3.3,0.4-7.2,0.6-9.6,1.4c-2.4,0.8-5,0.3-7.8,0.7
			s-18.4,0.7-22.6-0.6c-4.3-1.3-11.8,0.3-17.9-0.4c-6.1-0.7-15.5-1.5-19.4-0.5c-3.9,1-20-1.9-24.1-1.1c-4,0.8-17.3,2.2-20.3,2.1
			c-3-0.1-4.8-0.3-9.4-0.4c-4.7,0-17.4-1-21.8,0.1s-4.2-0.2-12.4-0.8s-12-1-18.2-0.6c-6.3,0.4-17.3,1.2-21.7,1.3
			c-4.4,0.1-5.5,0.9-10.2,0.7c-4.7-0.2-19.2-1.5-24.9-1.2c-5.8,0.3-13.9,1.6-21.8-0.3c-7.9-1.9-30.8-0.6-37.6-0.7
			c-6.8-0.1-34.6-0.7-39.8-0.7c-5.2,0.1-44.9,2.3-49.7,2.6s-28.8,1-34.1,1.1c-5.3,0.1-6.2,0.2-9.6,0.8c-3.4,0.6-8.6,1.2-15.3,1.3
			c-6.6,0.1-14.3,2.7-19.4,2.7c-5.1,0-15.9-0.9-19.2-1c-3.3-0.1-27.9-1.9-30.4-2.5c-2.4-0.6-2.5-0.1-2.5-1.1S-13.1,164.2-13.1,164.2
			z"/>
		<path class="st0" d="M563.8,160.2c5.6,0.1,10.7,2.1,16,1.6c5.3-0.5,12.5,0.1,17.5,0.1c5,0.1,36.4,2.3,42.4,1.8
			c6.1-0.5,16.2,0.5,24.1,0.7c7.9,0.2,19,0.5,25.3,0.7s12.6,0.7,18.2-0.4c5.6-1.1,13.4-1.8,21.3-1.8s44.9,1.3,52.3,0.8
			c7.4-0.5,13.5-0.4,21.4-0.1c7.9,0.2,23.5-0.8,28.9-0.8c5.4,0.1,11.1,1.5,14.9,1.7s24.6,1.8,28.7,1.7c4.1-0.2,13.4-0.6,16.3-1.4
			s6.9,0.3,11.9-0.8c5-1.1,11-1.8,15.6-1.6s6.1,0.7,11,0c4.9-0.7,5,0.1,8.9-0.5c3.9-0.6,4.3-0.5,6.7-0.8c2.4-0.3,4.6-0.5,4.6-0.5
			l-0.4,13.6c0,0-10.4-1.1-17,0.3c-6.6,1.4-9.2-0.9-14.5,0.3c-5.3,1.2-4.7,1.5-9.8,1.2c-5.1-0.4-2.7-1-6.9,0s-4.9,0.8-8.2,1.2
			s-7.2,0.6-9.6,1.4c-2.4,0.8-5,0.3-7.8,0.7s-18.4-0.3-22.6-1.6s-11.8,0.3-17.9-0.4c-6.1-0.7-15.5-1.5-19.4-0.5s-20-1.9-24.1-1.1
			c-4,0.8-17.3,2.2-20.3,2.1c-3-0.1-4.8-0.3-9.4-0.4c-4.7,0-17.4-1-21.8,0.1c-4.4,1.1-4.2-0.2-12.4-0.8c-8.2-0.6-12-1-18.2-0.6
			c-6.3,0.4-17.3,1.2-21.7,1.3c-4.4,0.1-5.5,0.9-10.2,0.7c-4.7-0.2-19.2-1.5-24.9-1.2c-5.8,0.3-13.9,1.6-21.8-0.3
			c-7.9-1.9-30.8-0.6-37.6-0.7c-6.8-0.1-34.6-2.4-39.8-2.4"/>
		<path class="st0" d="M1345.5,172.3c-5.2,0-32.9,2.4-39.8,2.5c-6.8,0.1-29.7-1.1-37.6,0.8s-16.1,0.6-21.8,0.3s-20.3,1-24.9,1.2
			c-4.7,0.3-5.8-0.6-10.2-0.6c-4.4,0-15.4-0.8-21.7-1.2c-6.3-0.4-10-0.1-18.2,0.6c-8.2,0.7-7.9,1.9-12.4,0.8
			c-4.4-1.1-17.2-0.1-21.8,0c-4.7,0.1-6.4,0.3-9.4,0.4c-3,0.1-16.3-1.3-20.4-2c-4-0.7-20.1,2.1-24.1,1.2c-3.9-0.9-13.3-0.1-19.4,0.6
			c-6.1,0.7-13.7-0.9-17.9,0.4s-19.8,2-22.6,1.6c-2.8-0.4-5.5,0.1-7.8-0.7c-2.4-0.8-6.3-1-9.6-1.3c-3.3-0.4-4-0.3-8.2-1.2
			c-4.2-0.9-1.9-0.3-6.9,0s-4.5,0.1-9.8-1.1c-5.3-1.2-7.9,1.1-14.5-0.3c0,0-14.7,0.2-17.6-0.3c-2.9-0.5-1.4-12.4-1.4-12.4l2.2-1.2
			c0,0,2-0.3,4.3,0s2.3,0.7,6.2,1.3s4-0.2,8.9,0.5c4.9,0.7,6.4,0.2,11,0c4.6-0.3,10.5,0.4,15.6,1.5c5,1.1,9-0.1,11.9,0.8
			s12.2,1.2,16.3,1.4c4.1,0.2,24.9-1.5,28.7-1.8c3.8-0.2,9.5-1.7,14.9-1.8c5.4-0.1,21,1,28.9,0.7c7.9-0.3,13.9-0.4,21.4,0.1
			c7.4,0.4,44.4-0.9,52.3-1c7.9-0.1,15.7,0.6,21.3,1.7c5.6,1.1,11.8,0.6,18.2,0.4c6.3-0.2,17.4-0.5,25.3-0.8s18-1.3,24.1-0.8
			c6.1,0.5,37.5-1.8,42.4-1.9c5-0.1,12.2-0.7,17.5-0.2s10.4-1.5,16-1.6"/>
		<path class="st0" d="M1332.5,172.8c-2.4,0.8-2-0.1-2-1.2l0.4-10.2c0,0,0.9-1.9,3.8-2.2s20.1,4.2,25.2,4c5-0.2,35.6,1.1,35.6,1.1
			c33-2.1,30.8-1.9,36-1.2c5.2,0.7,13.3,0.9,20.2-0.5c6.9-1.3,27.4-2.7,32-2.5c4.6,0.1,5.7-1.1,9.5-1.1c3.8,0,10-0.1,15.1-0.9
			c5.1-0.8,9-1,14.6-0.9s9.1,1.7,14.4,1.2c5.3-0.5,12.5,0.1,17.5,0.1c5,0.1,36.4,2.3,42.4,1.8c6.1-0.5,16.2,0.5,24.1,0.7
			c7.9,0.2,19,0.5,25.3,0.7c6.3,0.2,12.6,0.7,18.2-0.4c5.6-1.1,13.4-1.8,21.3-1.8c7.9,0,44.9,1.3,52.3,0.8
			c7.4-0.5,13.5-0.4,21.4-0.1c7.9,0.2,23.5-0.8,28.9-0.8c5.4,0.1,11.1,1.5,14.9,1.7s24.6,0.9,28.7,0.7c4.1-0.2,13.4-0.6,16.3-1.4
			s6.9,0.3,11.9-0.8c5-1.1,11-1.8,15.6-1.6c4.6,0.2,6.1-1.3,11-2s5,0.1,8.9-0.5s4.3-0.5,6.7-0.8c2.4-0.3,4.6-0.5,4.6-0.5l-0.4,13.6
			c0,0-10.4-1.1-17,0.3c-6.6,1.4-9.2,1.1-14.5,2.3c-5.3,1.2-4.7,1.5-9.8,1.2c-5.1-0.4-2.7-1-6.9,0s-4.9,0.8-8.2,1.2
			s-7.2,0.6-9.6,1.4c-2.4,0.8-5,0.3-7.8,0.7s-18.4,0.7-22.6-0.6c-4.3-1.3-11.8,0.3-17.9-0.4c-6.1-0.7-15.5-1.5-19.4-0.5
			s-20-1.9-24.1-1.1c-4,0.8-17.3,2.2-20.3,2.1s-4.8-0.3-9.4-0.4s-17.4-1-21.8,0.1c-4.4,1.1-4.2-0.2-12.4-0.8c-8.2-0.6-12-1-18.2-0.6
			c-6.3,0.4-17.3,1.2-21.7,1.3c-4.4,0.1-5.5,0.9-10.2,0.7c-4.7-0.2-19.2-1.5-24.9-1.2c-5.8,0.3-13.9,1.6-21.8-0.3
			c-7.9-1.9-30.8-0.6-37.6-0.7s-34.6-0.7-39.8-0.7c-5.2,0.1-44.9,2.3-49.7,2.6c-4.8,0.3-28.8,1-34.1,1.1c-5.3,0.1-6.2,0.2-9.6,0.8
			s-8.6,1.2-15.3,1.3c-6.6,0.1-18,0.6-23.1,0.7L1332.5,172.8z"/>
	</g>
	<path class="st0" d="M3.4,103.1l59,37.8l59-37.8l-59-37.7L3.4,103.1z M62.4,130.4l-42.7-27.4l42.7-27.3l42.7,27.3L62.4,130.4z"/>
	<path class="st0" d="M121.4,103.1l59,37.8l59-37.8l-59-37.7L121.4,103.1z M180.4,130.4l-42.7-27.4l42.7-27.3l42.7,27.3L180.4,130.4
		z"/>
	<path class="st0" d="M240.6,103.1l59,37.8l59-37.8l-59-37.7L240.6,103.1z M299.6,130.4l-42.7-27.4l42.7-27.3l42.7,27.3L299.6,130.4
		z"/>
	<path class="st0" d="M358.6,103.1l59,37.8l59-37.8l-59-37.7L358.6,103.1z M417.6,130.4l-42.7-27.4l42.7-27.3l42.7,27.3L417.6,130.4
		z"/>
	<path class="st0" d="M476.6,103.1l59,37.8l59-37.8l-59-37.7L476.6,103.1z M535.7,130.4L493,103.1l42.7-27.3l42.7,27.3L535.7,130.4z
		"/>
	<path class="st0" d="M594.7,103.1l59,37.8l59-37.8l-59-37.7L594.7,103.1z M653.7,130.4L611,103.1l42.7-27.3l42.7,27.3L653.7,130.4z
		"/>
	<path class="st0" d="M712.7,103.1l59,37.8l59-37.8l-59-37.7L712.7,103.1z M771.7,130.4L729,103.1l42.7-27.3l42.7,27.3L771.7,130.4z
		"/>
	<path class="st0" d="M830.7,103.1l59,37.8l59-37.8l-59-37.7L830.7,103.1z M889.7,130.4L847,103.1l42.7-27.3l42.7,27.3L889.7,130.4z
		"/>
	<path class="st0" d="M950.2,103.1l59,37.8l59-37.8l-59-37.7L950.2,103.1z M1009.2,130.4l-42.7-27.4l42.7-27.3l42.7,27.3
		L1009.2,130.4z"/>
	<path class="st0" d="M1068.2,103.1l59,37.8l59-37.8l-59-37.7L1068.2,103.1z M1127.2,130.4l-42.7-27.4l42.7-27.3l42.7,27.3
		L1127.2,130.4z"/>
	<path class="st0" d="M1187.4,103.1l59,37.8l59-37.8l-59-37.7L1187.4,103.1z M1246.4,130.4l-42.7-27.4l42.7-27.3l42.7,27.3
		L1246.4,130.4z"/>
	<path class="st0" d="M1305.4,103.1l59,37.8l59-37.8l-59-37.7L1305.4,103.1z M1364.4,130.4l-42.7-27.4l42.7-27.3l42.7,27.3
		L1364.4,130.4z"/>
	<path class="st0" d="M1423.4,103.1l59,37.8l59-37.8l-59-37.7L1423.4,103.1z M1482.4,130.4l-42.7-27.4l42.7-27.3l42.7,27.3
		L1482.4,130.4z"/>
	<path class="st0" d="M1541.5,103.1l59,37.8l59-37.8l-59-37.7L1541.5,103.1z M1600.5,130.4l-42.7-27.4l42.7-27.3l42.7,27.3
		L1600.5,130.4z"/>
	<path class="st0" d="M1659.5,103.1l59,37.8l59-37.8l-59-37.7L1659.5,103.1z M1718.5,130.4l-42.7-27.4l42.7-27.3l42.7,27.3
		L1718.5,130.4z"/>
	<path class="st0" d="M1836.5,65.4l-59,37.7l59,37.8l59-37.8L1836.5,65.4z M1793.8,103.1l42.7-27.3l42.7,27.3l-42.7,27.4
		L1793.8,103.1z"/>
</g>
<g>
</g>
<g>
</g>
<g>
</g>
<g>
</g>
<g>
</g>
<g>
</g>
</svg>
